HIERARCHY
ROOT Hips
{
 OFFSET 0.000000 0.000000 0.000000
 CHANNELS 6 Xposition Yposition Zposition Yrotation Xrotation Zrotation
 JOINT Chest
 {
  OFFSET 0.000000 9.585900 0.002600
  CHANNELS 3 Yrotation Xrotation Zrotation
  JOINT Chest2
  {
   OFFSET 0.000000 9.601200 -0.005300
   CHANNELS 3 Yrotation Xrotation Zrotation
   JOINT Chest3
   {
    OFFSET 0.000000 9.561800 0.000000
    CHANNELS 3 Yrotation Xrotation Zrotation
    JOINT Chest4
    {
     OFFSET 0.000000 9.552100 0.000000
     CHANNELS 3 Yrotation Xrotation Zrotation
     JOINT Neck
     {
      OFFSET 0.000000 14.453000 0.000000
      CHANNELS 3 Yrotation Xrotation Zrotation
      JOINT Head
      {
       OFFSET 0.000000 8.936500 -0.011300
       CHANNELS 3 Yrotation Xrotation Zrotation
       End Site
       {
        OFFSET 0.000000 17.073600 -0.006000
       }
      }
     }
     JOINT RightCollar
     {
      OFFSET -2.921100 9.558500 0.000000
      CHANNELS 3 Yrotation Xrotation Zrotation
      JOINT RightShoulder
      {
       OFFSET -13.519700 0.000000 0.000000
       CHANNELS 3 Yrotation Xrotation Zrotation
       JOINT RightElbow
       {
        OFFSET 0.000000 -29.696600 0.000000
        CHANNELS 3 Yrotation Xrotation Zrotation
        JOINT RightWrist
        {
         OFFSET 0.000000 -24.004700 0.000000
         CHANNELS 3 Yrotation Xrotation Zrotation
         End Site
         {
          OFFSET 0.000000 -17.728500 0.000000
         }
        }
       }
      }
     }
     JOINT LeftCollar
     {
      OFFSET 2.921100 9.558500 0.000000
      CHANNELS 3 Yrotation Xrotation Zrotation
      JOINT LeftShoulder
      {
       OFFSET 13.519700 0.000000 0.000000
       CHANNELS 3 Yrotation Xrotation Zrotation
       JOINT LeftElbow
       {
        OFFSET 0.000000 -29.696600 0.000000
        CHANNELS 3 Yrotation Xrotation Zrotation
        JOINT LeftWrist
        {
         OFFSET 0.000000 -24.004700 0.000000
         CHANNELS 3 Yrotation Xrotation Zrotation
         End Site
         {
          OFFSET 0.000000 -17.728500 0.000000
         }
        }
       }
      }
     }
    }
   }
  }
 }
 JOINT RightHip
 {
  OFFSET -7.771700 -0.012900 -0.001300
  CHANNELS 3 Yrotation Xrotation Zrotation
  JOINT RightKnee
  {
   OFFSET 0.000000 -40.869800 0.001200
   CHANNELS 3 Yrotation Xrotation Zrotation
   JOINT RightAnkle
   {
    OFFSET 0.000000 -39.717900 0.002100
    CHANNELS 3 Yrotation Xrotation Zrotation
    JOINT RightToe
    {
     OFFSET 0.000000 -4.965400 11.033500
     CHANNELS 3 Yrotation Xrotation Zrotation
     End Site
     {
      OFFSET 0.000000 -1.423100 5.872300
     }
    }
   }
  }
 }
 JOINT LeftHip
 {
  OFFSET 7.771700 -0.012900 -0.001300
  CHANNELS 3 Yrotation Xrotation Zrotation
  JOINT LeftKnee
  {
   OFFSET 0.000000 -40.869800 0.001200
   CHANNELS 3 Yrotation Xrotation Zrotation
   JOINT LeftAnkle
   {
    OFFSET 0.000000 -39.717900 0.002100
    CHANNELS 3 Yrotation Xrotation Zrotation
    JOINT LeftToe
    {
     OFFSET 0.000000 -4.965400 11.033500
     CHANNELS 3 Yrotation Xrotation Zrotation
     End Site
     {
      OFFSET 0.000000 -1.423100 5.872300
     }
    }
   }
  }
 }
}
MOTION
Frames: 11
Frame Time: 0.008333
0.000000 85.388000 0.000000 0.000000 -5.767877 0.000000 0.000000 11.653817 0.000000 0.000000 -5.885947 0.000000 0.000000 -0.000000 0.000000 0.000000 -0.000000 0.000000 0.000000 12.528835 0.000000 0.000000 0.711642 0.000000 0.000000 -0.000000 0.000000 0.000000 0.000000 -90.000000 0.000000 -2.309062 0.000000 0.000000 2.309062 0.000000 0.000000 -0.000000 0.000000 0.000000 -0.000000 90.000000 0.000000 -2.309062 0.000000 0.000000 2.309062 0.000000 0.000000 8.520406 0.000000 0.000000 1.905762 0.000000 -0.000000 -4.658285 0.000000 0.000000 -0.000000 0.000000 0.000000 8.520406 0.000000 0.000000 1.905762 0.000000 -0.000000 -4.658285 0.000000 0.000000 -0.000000 0.000000
-41.958832 55.238466 43.022181 -167.884208 -29.017088 -9.879777 -4.341060 13.326214 4.266077 -2.092951 7.982659 1.425849 -2.512696 10.023992 1.794084 -1.970512 8.040193 1.497120 3.007883 20.305891 0.257480 3.162075 -4.155251 -0.362919 0.894114 0.385550 -3.910381 -1.250145 -5.421892 3.733475 82.371352 -41.205372 -64.505036 7.462160 3.138021 -26.115625 -8.662059 0.629549 -3.892646 -7.856566 -2.329177 0.225851 -83.456718 -32.813604 80.114328 -4.511678 -1.147447 1.706165 -23.795603 -29.902580 2.514399 78.081658 88.624926 76.014391 0.340701 -25.856974 -1.976815 0.022249 0.815990 -0.051925 -15.688796 -46.734432 4.139161 172.824790 72.617976 171.565750 0.658106 -22.723920 -1.035840 -1.472625 -3.857607 -0.627238
-41.943427 55.261039 43.011853 -167.881137 -29.033959 -9.892367 -4.281117 13.366698 4.330518 -2.091497 7.982851 1.430296 -2.516371 10.020348 1.796855 -1.974633 8.035800 1.499350 2.953984 20.288734 0.228033 3.128844 -4.142954 -0.448805 0.868294 0.356269 -3.932107 -1.350887 -5.472732 3.748608 82.371744 -41.228244 -64.435236 7.512141 3.235834 -25.789138 -8.598792 0.672205 -3.855626 -7.855044 -2.316995 0.160073 -83.502704 -32.781996 80.186642 -4.514103 -1.255401 1.674852 -23.790135 -29.868757 2.541708 78.623379 88.626298 76.566516 0.314981 -25.872763 -1.965564 0.023226 0.800618 -0.053510 -15.686528 -46.713548 4.191138 172.850896 72.622810 171.547647 0.674900 -22.686313 -0.972078 -1.536533 -3.894428 -0.654944
-41.929811 55.284778 43.003836 -167.868210 -29.029357 -9.887349 -4.238218 13.384732 4.371783 -2.037651 8.006552 1.475812 -2.581040 9.988676 1.767618 -1.975435 8.036479 1.501014 2.900646 20.269644 0.199106 3.107533 -4.132804 -0.482638 0.912633 0.301897 -3.956092 -1.493069 -5.503511 3.769121 82.348337 -41.250834 -64.358064 7.557089 3.351337 -25.466078 -8.606817 0.671332 -3.847555 -7.824609 -2.290389 0.125850 -83.494049 -32.760770 80.219630 -4.532721 -1.272087 1.679436 -23.793114 -29.865123 2.546834 79.523498 88.624147 77.481887 0.308094 -25.896097 -1.971432 0.020769 0.790355 -0.051842 -15.684636 -46.717351 4.192702 172.853283 72.629890 171.533271 0.681636 -22.668694 -0.948436 -1.556788 -3.909001 -0.666493
-41.923997 55.307979 42.999093 -167.813969 -28.998359 -9.850464 -4.247514 13.380225 4.358973 -2.054569 7.999028 1.469825 -2.522408 10.015265 1.807705 -2.024976 8.016269 1.483848 2.863521 20.259634 0.166736 3.077837 -4.145671 -0.485719 0.909977 0.243958 -3.978304 -1.555063 -5.555509 3.793133 82.272515 -41.247743 -64.245231 7.585423 3.469156 -25.152318 -8.582203 0.668682 -3.830646 -7.844932 -2.283289 0.089125 -83.474521 -32.753738 80.234436 -4.547320 -1.290421 1.684302 -23.799554 -29.903165 2.507625 80.728886 88.649784 78.696471 0.306826 -25.938578 -1.961990 0.022649 0.789552 -0.045815 -15.668273 -46.734156 4.150828 172.930228 72.665280 171.587645 0.591060 -22.737940 -0.913104 -1.483811 -3.836202 -0.642815
-41.913243 55.335029 42.990492 -167.781473 -28.988804 -9.842741 -4.227072 13.397207 4.383055 -2.056380 8.001042 1.472506 -2.567087 9.989854 1.788667 -1.983796 8.048004 1.500682 2.858010 20.290381 0.129726 3.021980 -4.204279 -0.473052 0.903918 0.171101 -3.995426 -1.573216 -5.614268 3.818166 82.150911 -41.227666 -64.115626 7.600045 3.597082 -24.849056 -8.558608 0.647315 -3.814993 -7.892829 -2.285041 0.061777 -83.410885 -32.748629 80.221108 -4.558879 -1.321994 1.691017 -23.804593 -29.901031 2.505941 81.629720 88.652241 79.606779 0.288240 -25.975245 -1.960153 0.022286 0.788337 -0.040621 -15.669732 -46.727592 4.170027 172.992034 72.690508 171.606685 0.541399 -22.768160 -0.854950 -1.470701 -3.808060 -0.641916
-41.912273 55.360991 42.983304 -167.698166 -28.965680 -9.810392 -4.266752 13.405418 4.354890 -2.042933 8.012602 1.484456 -2.540088 10.013471 1.807522 -2.029582 8.023138 1.489229 2.813342 20.263386 0.106494 3.007778 -4.151118 -0.545016 0.908896 0.077950 -4.013524 -1.565003 -5.671463 3.846356 81.990600 -41.199360 -63.978331 7.609144 3.743049 -24.571374 -8.553407 0.608263 -3.802867 -7.920501 -2.278657 0.038348 -83.399007 -32.743066 80.222491 -4.566999 -1.313291 1.706939 -23.834062 -29.925308 2.448329 82.982983 88.655125 80.960269 0.272795 -26.023127 -1.948516 0.028439 0.787909 -0.025137 -15.683588 -46.718075 4.153431 173.142838 72.749515 171.689212 0.434472 -22.866845 -0.782925 -1.405733 -3.702580 -0.616093
-41.904754 55.389260 42.972679 -167.666641 -28.961477 -9.809448 -4.247413 13.431506 4.381106 -2.068589 7.998200 1.471689 -2.501918 10.051867 1.831434 -2.069257 7.988493 1.476681 2.798454 20.259536 0.092044 2.996893 -4.135722 -0.574717 0.905863 0.031957 -4.023904 -1.497676 -5.769355 3.874725 81.802784 -41.151972 -63.836554 7.622089 3.905019 -24.329024 -8.527349 0.587271 -3.783377 -7.870117 -2.245428 -0.006590 -83.483273 -32.723718 80.253028 -4.575333 -1.301866 1.722056 -23.852339 -29.913641 2.444879 83.730336 88.666561 81.714462 0.277805 -26.054707 -1.952437 0.021513 0.783243 -0.028331 -15.696904 -46.722984 4.154241 173.150840 72.755637 171.658369 0.443074 -22.832778 -0.735987 -1.423434 -3.746894 -0.629915
-41.903367 55.416302 42.962172 -167.646930 -28.955000 -9.779954 -4.238996 13.447916 4.371000 -2.042051 8.024480 1.492843 -2.516634 10.051604 1.830158 -2.056134 8.009541 1.486873 2.757029 20.227672 0.058664 2.969295 -4.151331 -0.597588 0.866286 -0.069746 -4.049424 -1.414379 -5.879007 3.906181 81.590264 -41.091675 -63.681553 7.670018 4.074859 -24.129690 -8.541343 0.506028 -3.762795 -7.850552 -2.227639 -0.048679 -83.378161 -32.690065 80.213358 -4.584387 -1.412763 1.712093 -23.861939 -29.917662 2.412903 84.661439 88.684984 82.648194 0.291755 -26.097219 -1.953480 0.023968 0.787438 -0.036288 -15.692109 -46.713074 4.171183 173.309057 72.788624 171.738537 0.399598 -22.861561 -0.655443 -1.413440 -3.722803 -0.626094
-41.901865 55.442707 42.950910 -167.620359 -28.941905 -9.767739 -4.225205 13.472118 4.387285 -2.030811 8.044116 1.505158 -2.527641 10.050668 1.830800 -2.043755 8.034359 1.497292 2.714225 20.189824 0.020310 2.940755 -4.177511 -0.621267 0.845033 -0.208205 -4.082134 -1.336582 -5.968813 3.945709 81.379103 -40.975519 -63.517522 7.716839 4.239853 -23.985935 -8.566888 0.412973 -3.748691 -7.836934 -2.218758 -0.084154 -83.310518 -32.659966 80.173753 -4.588603 -1.468780 1.716896 -23.920053 -29.916608 2.401993 85.473240 88.688134 83.444528 0.317693 -26.140199 -1.969256 0.019984 0.792497 -0.038365 -15.711059 -46.699055 4.185399 173.409699 72.822685 171.796651 0.332188 -22.917449 -0.617826 -1.362372 -3.673411 -0.605297
-41.910863 55.465774 42.941778 -167.564984 -28.907938 -9.714377 -4.245038 13.486126 4.359879 -2.044194 8.042003 1.502442 -2.528105 10.060294 1.837165 -2.053057 8.026490 1.494495 2.698912 20.186946 -0.009349 2.913169 -4.214479 -0.637174 0.859812 -0.367222 -4.131768 -1.266266 -6.006286 4.013404 81.169752 -40.831301 -63.346259 7.781493 4.401187 -23.889471 -8.589221 0.354958 -3.750311 -7.804921 -2.210689 -0.103311 -83.265625 -32.634956 80.140345 -4.590382 -1.525918 1.721549 -23.962589 -29.962106 2.333782 87.031093 88.706622 84.985048 0.342130 -26.189336 -1.968923 0.013918 0.794335 -0.035910 -15.714288 -46.694631 4.152219 173.571386 72.880956 171.899976 0.182839 -23.055289 -0.567610 -1.240444 -3.541161 -0.555195
